<svg width="73" height="74" viewBox="0 0 73 74" fill="none" xmlns="http://www.w3.org/2000/svg">
<path fill-rule="evenodd" clip-rule="evenodd" d="M36.6887 4.67859H37.0283C42.5599 4.67854 46.9413 4.6785 50.3703 5.13952C53.8992 5.61397 56.7555 6.61363 59.008 8.86617C61.2606 11.1187 62.2603 13.975 62.7347 17.5039C63.0439 19.8038 63.1457 22.532 63.1792 25.7483H63.9481C66.8572 25.7483 69.2155 28.1066 69.2155 31.0157V34.0257C69.2155 35.6836 68.4349 37.2448 67.1086 38.2396L63.1882 41.1799C63.1663 44.8895 63.0793 47.9845 62.7347 50.5474C62.2603 54.0763 61.2606 56.9326 59.008 59.1852C58.4365 59.7567 57.8261 60.2476 57.1757 60.6697V64.1252C57.1757 67.0344 54.8174 69.3927 51.9083 69.3927H47.3934C44.4842 69.3927 42.1259 67.0344 42.1259 64.1252V63.3563C40.5467 63.3728 38.8499 63.3728 37.0283 63.3728H36.6887C34.8671 63.3728 33.1703 63.3728 31.5911 63.3563V64.1252C31.5911 67.0344 29.2328 69.3927 26.3237 69.3927H21.8087C18.8996 69.3927 16.5413 67.0344 16.5413 64.1252V60.6697C15.8909 60.2476 15.2805 59.7567 14.709 59.1852C12.4564 56.9326 11.4568 54.0763 10.9823 50.5474C10.6377 47.9845 10.5507 44.8895 10.5288 41.1799L6.60844 38.2396C5.28207 37.2448 4.50146 35.6836 4.50146 34.0257V31.0157C4.50146 28.1066 6.85977 25.7483 9.76889 25.7483H10.5378C10.5713 22.532 10.6731 19.8038 10.9823 17.5039C11.4568 13.975 12.4564 11.1187 14.709 8.86617C16.9615 6.61363 19.8178 5.61397 23.3467 5.13952C26.7757 4.6785 31.1571 4.67854 36.6887 4.67859ZM10.5214 30.2632H9.76889C9.3533 30.2632 9.0164 30.6001 9.0164 31.0157V34.0257C9.0164 34.2625 9.12792 34.4856 9.3174 34.6277L10.5214 35.5307L10.5214 30.8459C10.5214 30.6502 10.5214 30.456 10.5214 30.2632ZM15.0536 42.3031C15.0863 45.4143 15.1814 47.8961 15.457 49.9458C15.8641 52.9741 16.6277 54.7188 17.9015 55.9926C19.1753 57.2665 20.9201 58.03 23.9483 58.4372C27.0416 58.853 31.1191 58.8578 36.8585 58.8578C42.598 58.8578 46.6754 58.853 49.7687 58.4372C52.797 58.03 54.5417 57.2665 55.8155 55.9926C57.0893 54.7188 57.8529 52.9741 58.26 49.9458C58.5356 47.8961 58.6307 45.4143 58.6635 42.3031H15.0536ZM58.6806 37.7881H15.0364C15.0363 37.5405 15.0363 37.2897 15.0363 37.0356V31.0157C15.0363 25.3489 15.041 21.3022 15.4414 18.2234H58.2756C58.676 21.3022 58.6807 25.3489 58.6807 31.0157V37.0356C58.6807 37.2897 58.6807 37.5405 58.6806 37.7881ZM63.1956 35.5307L64.3996 34.6277C64.5891 34.4856 64.7006 34.2625 64.7006 34.0257V31.0157C64.7006 30.6001 64.3637 30.2632 63.9481 30.2632H63.1956C63.1956 30.456 63.1956 30.6503 63.1956 30.8459V35.5307ZM57.0283 13.7085C56.6888 13.0665 56.2871 12.5303 55.8155 12.0587C54.5417 10.7849 52.797 10.0213 49.7687 9.61419C46.6754 9.19832 42.598 9.19353 36.8585 9.19353C31.1191 9.19353 27.0416 9.19832 23.9483 9.61419C20.9201 10.0213 19.1753 10.7849 17.9015 12.0587C17.4299 12.5303 17.0282 13.0665 16.6887 13.7085H57.0283ZM21.0562 62.5012V64.1252C21.0562 64.5408 21.3931 64.8777 21.8087 64.8777H26.3237C26.7392 64.8777 27.0761 64.5408 27.0761 64.1252V63.235C25.7236 63.1667 24.4829 63.0646 23.3467 62.9118C22.5491 62.8046 21.7859 62.6705 21.0562 62.5012ZM46.6409 63.235V64.1252C46.6409 64.5408 46.9778 64.8777 47.3934 64.8777H51.9083C52.3239 64.8777 52.6608 64.5408 52.6608 64.1252V62.5012C51.9311 62.6705 51.1679 62.8046 50.3703 62.9118C49.2341 63.0646 47.9934 63.1667 46.6409 63.235ZM19.5513 49.0755C19.5513 47.8287 20.562 46.818 21.8087 46.818H26.3237C27.5704 46.818 28.5811 47.8287 28.5811 49.0755C28.5811 50.3222 27.5704 51.3329 26.3237 51.3329H21.8087C20.562 51.3329 19.5513 50.3222 19.5513 49.0755ZM45.1359 49.0755C45.1359 47.8287 46.1466 46.818 47.3934 46.818H51.9083C53.1551 46.818 54.1658 47.8287 54.1658 49.0755C54.1658 50.3222 53.1551 51.3329 51.9083 51.3329H47.3934C46.1466 51.3329 45.1359 50.3222 45.1359 49.0755Z" fill="#F6FBFE"/>
</svg>
