<svg width="73" height="74" viewBox="0 0 73 74" fill="none" xmlns="http://www.w3.org/2000/svg">
<path fill-rule="evenodd" clip-rule="evenodd" d="M36.6887 4.53931H37.0283C42.5599 4.53926 46.9413 4.53922 50.3703 5.00024C53.8992 5.47469 56.7555 6.47435 59.0081 8.72689C61.2606 10.9794 62.2603 13.8357 62.7347 17.3647C63.0439 19.6645 63.1457 22.3927 63.1792 25.609H63.9481C66.8572 25.609 69.2155 27.9673 69.2155 30.8764V33.8864C69.2155 35.5444 68.4349 37.1056 67.1086 38.1003L63.1882 41.0406C63.1663 44.7502 63.0793 47.8452 62.7347 50.4081C62.2603 53.9371 61.2606 56.7934 59.0081 59.0459C58.4365 59.6174 57.8261 60.1083 57.1757 60.5304V63.986C57.1757 66.8951 54.8174 69.2534 51.9083 69.2534H47.3934C44.4842 69.2534 42.1259 66.8951 42.1259 63.986V63.2171C40.5467 63.2335 38.8499 63.2335 37.0283 63.2335H36.6887C34.8671 63.2335 33.1703 63.2335 31.5911 63.2171V63.986C31.5911 66.8951 29.2328 69.2534 26.3237 69.2534H21.8087C18.8996 69.2534 16.5413 66.8951 16.5413 63.986V60.5304C15.8909 60.1083 15.2805 59.6174 14.709 59.0459C12.4564 56.7934 11.4568 53.9371 10.9823 50.4081C10.6377 47.8452 10.5507 44.7502 10.5288 41.0406L6.60844 38.1003C5.28207 37.1056 4.50146 35.5444 4.50146 33.8864V30.8764C4.50146 27.9673 6.85977 25.609 9.76889 25.609H10.5378C10.5713 22.3927 10.6731 19.6645 10.9823 17.3647C11.4568 13.8357 12.4564 10.9794 14.709 8.72689C16.9615 6.47435 19.8178 5.47469 23.3467 5.00024C26.7757 4.53922 31.1571 4.53926 36.6887 4.53931ZM10.5214 30.1239H9.76889C9.3533 30.1239 9.0164 30.4608 9.0164 30.8764V33.8864C9.0164 34.1232 9.12792 34.3463 9.3174 34.4884L10.5214 35.3914L10.5214 30.7066C10.5214 30.511 10.5214 30.3167 10.5214 30.1239ZM15.0536 42.1638C15.0863 45.275 15.1814 47.7568 15.457 49.8065C15.8641 52.8348 16.6277 54.5795 17.9015 55.8533C19.1753 57.1272 20.9201 57.8907 23.9483 58.2979C27.0416 58.7137 31.1191 58.7185 36.8585 58.7185C42.598 58.7185 46.6754 58.7137 49.7687 58.2979C52.797 57.8907 54.5417 57.1272 55.8155 55.8533C57.0893 54.5795 57.8529 52.8348 58.26 49.8065C58.5356 47.7568 58.6307 45.275 58.6635 42.1638H15.0536ZM58.6806 37.6488H15.0364C15.0363 37.4012 15.0363 37.1504 15.0363 36.8964V30.8764C15.0363 25.2096 15.041 21.1629 15.4414 18.0841H58.2756C58.676 21.1629 58.6807 25.2096 58.6807 30.8764V36.8964C58.6807 37.1504 58.6807 37.4012 58.6806 37.6488ZM63.1956 35.3914L64.3996 34.4884C64.5891 34.3463 64.7006 34.1232 64.7006 33.8864V30.8764C64.7006 30.4608 64.3637 30.1239 63.9481 30.1239H63.1956C63.1956 30.3167 63.1956 30.511 63.1956 30.7066V35.3914ZM57.0283 13.5692C56.6888 12.9272 56.2871 12.3911 55.8155 11.9194C54.5417 10.6456 52.797 9.88205 49.7687 9.47491C46.6754 9.05904 42.598 9.05424 36.8585 9.05424C31.1191 9.05424 27.0416 9.05904 23.9483 9.47491C20.9201 9.88206 19.1753 10.6456 17.9015 11.9194C17.4299 12.3911 17.0282 12.9272 16.6887 13.5692H57.0283ZM21.0562 62.362V63.986C21.0562 64.4016 21.3931 64.7385 21.8087 64.7385H26.3237C26.7392 64.7385 27.0761 64.4016 27.0761 63.986V63.0957C25.7236 63.0274 24.4829 62.9253 23.3467 62.7725C22.5491 62.6653 21.7859 62.5312 21.0562 62.362ZM46.6409 63.0957V63.986C46.6409 64.4016 46.9778 64.7385 47.3934 64.7385H51.9083C52.3239 64.7385 52.6608 64.4016 52.6608 63.986V62.362C51.9311 62.5312 51.1679 62.6653 50.3703 62.7725C49.2341 62.9253 47.9934 63.0274 46.6409 63.0957ZM19.5513 48.9362C19.5513 47.6894 20.562 46.6787 21.8087 46.6787H26.3237C27.5704 46.6787 28.5811 47.6894 28.5811 48.9362C28.5811 50.1829 27.5704 51.1936 26.3237 51.1936H21.8087C20.562 51.1936 19.5513 50.1829 19.5513 48.9362ZM45.1359 48.9362C45.1359 47.6894 46.1466 46.6787 47.3934 46.6787H51.9083C53.1551 46.6787 54.1658 47.6894 54.1658 48.9362C54.1658 50.1829 53.1551 51.1936 51.9083 51.1936H47.3934C46.1466 51.1936 45.1359 50.1829 45.1359 48.9362Z" fill="#7A8699"/>
</svg>
