<svg width="74" height="74" viewBox="0 0 74 74" fill="none" xmlns="http://www.w3.org/2000/svg">
<path fill-rule="evenodd" clip-rule="evenodd" d="M23.8463 14.2816C24.6494 10.3389 28.1579 7.54932 32.1776 7.54932H42.0121C46.0318 7.54932 49.5402 10.3389 50.3434 14.2816C50.5288 15.1917 51.3534 15.8594 52.2109 15.8594H52.2602L52.3095 15.8615C56.5337 16.0462 59.7784 16.5646 62.4873 18.3418C64.194 19.4614 65.6622 20.902 66.8062 22.583C68.2295 24.6744 68.8572 27.0747 69.158 29.9779C69.4519 32.8143 69.4519 36.3697 69.4519 40.8727V41.1291C69.4519 45.6321 69.4519 49.1875 69.158 52.0239C68.8572 54.927 68.2295 57.3274 66.8062 59.4188C65.6622 61.0998 64.194 62.5403 62.4873 63.66C60.3699 65.0491 57.9424 65.6615 54.9982 65.9556C52.1155 66.2435 48.4996 66.2435 43.9077 66.2435H30.282C25.69 66.2435 22.0741 66.2435 19.1915 65.9556C16.2472 65.6615 13.8198 65.0491 11.7024 63.66C9.99563 62.5403 8.52749 61.0998 7.38351 59.4188C5.96019 57.3274 5.33243 54.927 5.03163 52.0239C4.73775 49.1875 4.73777 45.6321 4.73779 41.129V40.8727C4.73777 36.3697 4.73775 32.8143 5.03163 29.9779C5.33243 27.0747 5.96019 24.6744 7.38351 22.583C8.52749 20.902 9.99563 19.4614 11.7024 18.3418C14.4113 16.5646 17.6559 16.0462 21.8802 15.8615L21.9295 15.8594H21.9788C22.8363 15.8594 23.6609 15.1917 23.8463 14.2816ZM32.1776 12.0643C30.2479 12.0643 28.634 13.3976 28.2704 15.1828C27.6814 18.0739 25.1182 20.3472 22.034 20.3741C17.9748 20.5544 15.8005 21.0531 14.1789 22.1168C12.9643 22.9137 11.9241 23.9358 11.1161 25.1232C10.2849 26.3445 9.78536 27.9064 9.52253 30.4432C9.25556 33.0198 9.25273 36.3414 9.25273 41.0009C9.25273 45.6604 9.25556 48.982 9.52253 51.5586C9.78536 54.0954 10.2849 55.6572 11.1161 56.8786C11.9241 58.0659 12.9643 59.0881 14.1789 59.8849C15.4357 60.7094 17.0438 61.2037 19.6402 61.463C22.2723 61.7259 25.6628 61.7285 30.406 61.7285H43.7836C48.5269 61.7285 51.9174 61.7259 54.5495 61.463C57.1458 61.2037 58.754 60.7094 60.0107 59.8849C61.2254 59.0881 62.2656 58.0659 63.0736 56.8786C63.9048 55.6572 64.4043 54.0954 64.6671 51.5586C64.9341 48.982 64.9369 45.6604 64.9369 41.0009C64.9369 36.3414 64.9341 33.0198 64.6671 30.4432C64.4043 27.9064 63.9048 26.3445 63.0736 25.1232C62.2656 23.9358 61.2254 22.9137 60.0107 22.1168C58.3892 21.0531 56.2149 20.5544 52.1557 20.3741C49.0715 20.3472 46.5082 18.0739 45.9193 15.1828C45.5557 13.3976 43.9418 12.0643 42.0121 12.0643H32.1776ZM37.0948 33.134C33.3545 33.134 30.3224 36.1661 30.3224 39.9064C30.3224 43.6467 33.3545 46.6788 37.0948 46.6788C40.8351 46.6788 43.8672 43.6467 43.8672 39.9064C43.8672 36.1661 40.8351 33.134 37.0948 33.134ZM25.8075 39.9064C25.8075 33.6725 30.861 28.619 37.0948 28.619C43.3287 28.619 48.3822 33.6725 48.3822 39.9064C48.3822 46.1402 43.3287 51.1937 37.0948 51.1937C30.861 51.1937 25.8075 46.1402 25.8075 39.9064ZM52.8971 30.8765C52.8971 29.6297 53.9078 28.619 55.1546 28.619H58.1645C59.4113 28.619 60.422 29.6297 60.422 30.8765C60.422 32.1233 59.4113 33.134 58.1645 33.134H55.1546C53.9078 33.134 52.8971 32.1233 52.8971 30.8765Z" fill="#7A8699"/>
</svg>
