<svg width="74" height="74" viewBox="0 0 74 74" fill="none" xmlns="http://www.w3.org/2000/svg">
<path fill-rule="evenodd" clip-rule="evenodd" d="M23.8463 14.4209C24.6494 10.4782 28.1579 7.6886 32.1776 7.6886H42.0121C46.0318 7.6886 49.5402 10.4782 50.3434 14.4208C50.5288 15.331 51.3534 15.9987 52.2109 15.9987H52.2602L52.3095 16.0008C56.5337 16.1855 59.7784 16.7039 62.4873 18.481C64.194 19.6007 65.6622 21.0413 66.8062 22.7222C68.2295 24.8137 68.8572 27.214 69.158 30.1171C69.4519 32.9536 69.4519 36.5089 69.4519 41.012V41.2683C69.4519 45.7714 69.4519 49.3268 69.158 52.1632C68.8572 55.0663 68.2295 57.4667 66.8062 59.5581C65.6622 61.2391 64.194 62.6796 62.4873 63.7993C60.3699 65.1884 57.9424 65.8008 54.9982 66.0949C52.1155 66.3828 48.4996 66.3828 43.9077 66.3828H30.282C25.6901 66.3828 22.0741 66.3828 19.1915 66.0949C16.2472 65.8008 13.8198 65.1884 11.7024 63.7993C9.99563 62.6796 8.52749 61.2391 7.38351 59.5581C5.96019 57.4667 5.33243 55.0663 5.03163 52.1632C4.73775 49.3268 4.73777 45.7714 4.73779 41.2683V41.012C4.73777 36.5089 4.73775 32.9536 5.03163 30.1171C5.33243 27.214 5.96019 24.8137 7.38351 22.7222C8.52749 21.0413 9.99563 19.6007 11.7024 18.481C14.4113 16.7039 17.6559 16.1855 21.8802 16.0008L21.9295 15.9987H21.9788C22.8363 15.9987 23.6609 15.331 23.8463 14.4209ZM32.1776 12.2035C30.2479 12.2035 28.634 13.5369 28.2704 15.3221C27.6814 18.2132 25.1182 20.4865 22.034 20.5134C17.9748 20.6937 15.8005 21.1924 14.1789 22.2561C12.9643 23.053 11.9241 24.0751 11.1161 25.2624C10.2849 26.4838 9.78536 28.0457 9.52253 30.5825C9.25556 33.1591 9.25273 36.4807 9.25273 41.1402C9.25273 45.7997 9.25556 49.1213 9.52253 51.6979C9.78536 54.2346 10.2849 55.7965 11.1161 57.0179C11.9241 58.2052 12.9643 59.2274 14.1789 60.0242C15.4357 60.8487 17.0438 61.343 19.6402 61.6023C22.2723 61.8652 25.6628 61.8678 30.406 61.8678H43.7836C48.5269 61.8678 51.9174 61.8652 54.5495 61.6023C57.1458 61.343 58.754 60.8487 60.0107 60.0242C61.2254 59.2274 62.2656 58.2052 63.0736 57.0179C63.9048 55.7965 64.4043 54.2346 64.6671 51.6979C64.9341 49.1213 64.9369 45.7997 64.9369 41.1402C64.9369 36.4807 64.9341 33.1591 64.6671 30.5825C64.4043 28.0457 63.9048 26.4838 63.0736 25.2624C62.2656 24.0751 61.2254 23.053 60.0107 22.2561C58.3892 21.1924 56.2149 20.6937 52.1557 20.5134C49.0715 20.4865 46.5082 18.2132 45.9193 15.3221C45.5557 13.5369 43.9418 12.2035 42.0121 12.2035H32.1776ZM37.0948 33.2732C33.3545 33.2732 30.3224 36.3053 30.3224 40.0456C30.3224 43.7859 33.3545 46.818 37.0948 46.818C40.8351 46.818 43.8672 43.7859 43.8672 40.0456C43.8672 36.3053 40.8351 33.2732 37.0948 33.2732ZM25.8075 40.0456C25.8075 33.8118 30.861 28.7583 37.0948 28.7583C43.3287 28.7583 48.3822 33.8118 48.3822 40.0456C48.3822 46.2795 43.3287 51.333 37.0948 51.333C30.861 51.333 25.8075 46.2795 25.8075 40.0456ZM52.8971 31.0158C52.8971 29.769 53.9078 28.7583 55.1546 28.7583H58.1645C59.4113 28.7583 60.422 29.769 60.422 31.0158C60.422 32.2625 59.4113 33.2732 58.1645 33.2732H55.1546C53.9078 33.2732 52.8971 32.2625 52.8971 31.0158Z" fill="#F6FBFE"/>
</svg>
