<svg width="74" height="73" viewBox="0 0 74 73" fill="none" xmlns="http://www.w3.org/2000/svg">
<path fill-rule="evenodd" clip-rule="evenodd" d="M36.9874 6.77271H37.2029C39.9246 6.77268 42.1197 6.77266 43.8905 6.93314C45.7155 7.09856 47.3102 7.44861 48.7588 8.28492C50.4747 9.27559 51.8995 10.7005 52.8902 12.4164C53.7265 13.8649 54.0766 15.4596 54.242 17.2847C54.4025 19.0554 54.4025 21.2505 54.4024 23.9723V34.2267C55.8894 34.5407 57.2347 35.155 58.321 36.3964C59.6621 37.9291 60.0995 39.8417 60.2806 41.9488C60.2847 41.9967 60.2888 42.0446 60.293 42.0923C60.399 43.324 60.4996 44.4908 60.4343 45.4657C60.3595 46.583 60.0564 47.7233 59.1497 48.7112C58.2133 49.7316 57.0375 50.1117 55.9112 50.2726C55.4526 50.3381 54.9458 50.3739 54.4024 50.3935V63.2094C54.4024 64.4562 53.3917 65.4669 52.145 65.4669C50.8982 65.4669 49.8875 64.4562 49.8875 63.2094V50.4171H24.3029V63.2094C24.3029 64.4562 23.2922 65.4669 22.0454 65.4669C20.7986 65.4669 19.7879 64.4562 19.7879 63.2094V50.3935C19.2446 50.3739 18.7377 50.3381 18.2791 50.2726C17.1529 50.1117 15.977 49.7316 15.0406 48.7112C14.134 47.7233 13.8309 46.583 13.7561 45.4657C13.6908 44.4907 13.7913 43.3239 13.8974 42.0922C13.9015 42.0445 13.9056 41.9967 13.9097 41.9488C14.0909 39.8417 14.5282 37.9291 15.8693 36.3964C16.9556 35.155 18.301 34.5407 19.7879 34.2267L19.7879 23.9722C19.7879 21.2505 19.7879 19.0554 19.9484 17.2847C20.1138 15.4596 20.4638 13.8649 21.3001 12.4164C22.2908 10.7005 23.7157 9.27559 25.4316 8.28492C26.8801 7.44861 28.4748 7.09856 30.2999 6.93314C32.0706 6.77266 34.2657 6.77268 36.9874 6.77271ZM26.3906 33.8623C26.2803 33.8623 26.1708 33.8623 26.062 33.8623H24.3029V24.08C24.3029 21.2253 24.305 19.2352 24.4449 17.6922C24.5819 16.1803 24.8367 15.3207 25.2102 14.6738C25.8046 13.6443 26.6595 12.7894 27.6891 12.195C28.3359 11.8215 29.1955 11.5667 30.7074 11.4296C32.2504 11.2898 34.2405 11.2876 37.0952 11.2876C39.9499 11.2876 41.94 11.2898 43.4829 11.4296C44.9949 11.5667 45.8544 11.8215 46.5013 12.195C47.5308 12.7894 48.3858 13.6443 48.9802 14.6738C49.3536 15.3207 49.6085 16.1803 49.7455 17.6922C49.8853 19.2352 49.8875 21.2253 49.8875 24.08V33.8623H48.1284C48.0196 33.8623 47.91 33.8623 47.7998 33.8623H26.3906ZM26.5603 38.3773C24.0046 38.3773 22.3468 38.3835 21.1234 38.5715C19.9991 38.7442 19.5676 39.0263 19.2672 39.3695C18.8873 39.8037 18.5636 40.5266 18.4081 42.3354C18.2854 43.763 18.2216 44.5772 18.2609 45.1641C18.2784 45.425 18.3128 45.5481 18.3306 45.5971C18.3421 45.6289 18.3484 45.6382 18.3671 45.6585L18.3706 45.6622C18.3707 45.6622 18.3705 45.6621 18.3706 45.6622L18.3799 45.6682C18.3852 45.6712 18.3946 45.6762 18.4092 45.6826C18.4721 45.7103 18.618 45.7602 18.9176 45.803C19.5738 45.8967 20.495 45.9022 22.0454 45.9022H52.145C53.6954 45.9022 54.6165 45.8967 55.2728 45.803C55.5724 45.7602 55.7183 45.7103 55.7811 45.6826C55.7957 45.6762 55.8051 45.6712 55.8105 45.6682L55.8184 45.6634C55.8187 45.6632 55.8185 45.6633 55.8184 45.6634L55.8233 45.6585C55.8419 45.6382 55.8482 45.6289 55.8597 45.5971C55.8775 45.5481 55.912 45.425 55.9294 45.1641C55.9687 44.5772 55.905 43.763 55.7823 42.3354C55.6268 40.5266 55.303 39.8037 54.9232 39.3695C54.6228 39.0263 54.1912 38.7442 53.067 38.5715C51.8435 38.3835 50.1857 38.3773 47.63 38.3773H26.5603Z" fill="#7A8699"/>
</svg>
