<svg width="74" height="73" viewBox="0 0 74 73" fill="none" xmlns="http://www.w3.org/2000/svg">
<path fill-rule="evenodd" clip-rule="evenodd" d="M36.9874 6.91211H37.2029C39.9246 6.91208 42.1197 6.91206 43.8905 7.07255C45.7155 7.23796 47.3102 7.58801 48.7588 8.42433C50.4747 9.415 51.8995 10.8399 52.8902 12.5558C53.7265 14.0043 54.0766 15.599 54.242 17.4241C54.4025 19.1948 54.4025 21.3899 54.4024 24.1117V34.3661C55.8894 34.6801 57.2347 35.2944 58.321 36.5358C59.6621 38.0685 60.0995 39.9811 60.2806 42.0882C60.2847 42.1361 60.2888 42.184 60.293 42.2317C60.399 43.4634 60.4995 44.6302 60.4343 45.6051C60.3595 46.7224 60.0564 47.8627 59.1497 48.8506C58.2133 49.871 57.0375 50.2511 55.9112 50.412C55.4526 50.4775 54.9458 50.5133 54.4024 50.5329V63.3488C54.4024 64.5956 53.3917 65.6063 52.145 65.6063C50.8982 65.6063 49.8875 64.5956 49.8875 63.3488V50.5565H24.3029V63.3488C24.3029 64.5956 23.2922 65.6063 22.0454 65.6063C20.7986 65.6063 19.7879 64.5956 19.7879 63.3488V50.5329C19.2446 50.5133 18.7377 50.4775 18.2791 50.412C17.1529 50.2511 15.977 49.871 15.0406 48.8506C14.134 47.8627 13.8309 46.7224 13.7561 45.6051C13.6908 44.6301 13.7913 43.4633 13.8974 42.2316C13.9015 42.1839 13.9056 42.1361 13.9097 42.0882C14.0909 39.9811 14.5282 38.0685 15.8693 36.5358C16.9556 35.2944 18.301 34.6801 19.7879 34.3661L19.7879 24.1116C19.7879 21.3899 19.7879 19.1948 19.9484 17.4241C20.1138 15.599 20.4638 14.0043 21.3001 12.5558C22.2908 10.8399 23.7157 9.415 25.4316 8.42433C26.8801 7.58801 28.4748 7.23796 30.2999 7.07255C32.0706 6.91206 34.2657 6.91208 36.9874 6.91211ZM26.3906 34.0017C26.2803 34.0017 26.1708 34.0017 26.062 34.0017H24.3029V24.2194C24.3029 21.3647 24.305 19.3746 24.4449 17.8316C24.5819 16.3197 24.8367 15.4601 25.2102 14.8132C25.8046 13.7837 26.6595 12.9288 27.6891 12.3344C28.3359 11.9609 29.1955 11.7061 30.7074 11.5691C32.2504 11.4292 34.2405 11.427 37.0952 11.427C39.9499 11.427 41.94 11.4292 43.4829 11.5691C44.9949 11.7061 45.8544 11.9609 46.5013 12.3344C47.5308 12.9288 48.3858 13.7837 48.9802 14.8132C49.3536 15.4601 49.6085 16.3197 49.7455 17.8316C49.8853 19.3746 49.8875 21.3647 49.8875 24.2194V34.0017H48.1284C48.0196 34.0017 47.91 34.0017 47.7998 34.0017H26.3906ZM26.5603 38.5167C24.0046 38.5167 22.3468 38.5229 21.1234 38.7109C19.9991 38.8836 19.5676 39.1657 19.2672 39.5089C18.8873 39.9431 18.5636 40.666 18.4081 42.4748C18.2854 43.9024 18.2216 44.7166 18.2609 45.3036C18.2784 45.5644 18.3128 45.6875 18.3306 45.7365C18.3421 45.7683 18.3484 45.7776 18.3671 45.7979L18.3706 45.8016C18.3705 45.8015 18.3707 45.8016 18.3706 45.8016L18.3799 45.8076C18.3852 45.8106 18.3946 45.8156 18.4092 45.822C18.4721 45.8497 18.618 45.8996 18.9176 45.9424C19.5738 46.0361 20.495 46.0416 22.0454 46.0416H52.145C53.6954 46.0416 54.6165 46.0361 55.2728 45.9424C55.5723 45.8996 55.7183 45.8497 55.7811 45.822C55.7957 45.8156 55.8051 45.8106 55.8105 45.8076L55.8184 45.8028C55.8185 45.8027 55.8187 45.8026 55.8184 45.8028L55.8233 45.7979C55.8419 45.7776 55.8482 45.7683 55.8597 45.7365C55.8775 45.6875 55.912 45.5644 55.9294 45.3036C55.9687 44.7166 55.905 43.9024 55.7823 42.4748C55.6268 40.666 55.303 39.9431 54.9232 39.5089C54.6228 39.1657 54.1912 38.8836 53.067 38.7109C51.8435 38.5229 50.1857 38.5167 47.63 38.5167H26.5603Z" fill="#F6FBFE"/>
</svg>
