<svg width="66" height="66" viewBox="0 0 66 66" fill="none" xmlns="http://www.w3.org/2000/svg">
<path fill-rule="evenodd" clip-rule="evenodd" d="M30.4482 5.92884C29.1913 6.31735 27.5674 6.90745 25.2979 7.73314C22.0893 8.90051 18.3148 10.0306 15.0043 10.3316C14.1799 10.4065 13.5868 10.4605 13.1496 10.5067C12.9324 10.5296 12.7698 10.549 12.6472 10.566C12.5867 10.5744 12.5413 10.5815 12.5079 10.5873L12.4706 10.5941C12.4619 10.5959 12.4579 10.5968 12.458 10.5967C11.4524 10.8262 10.8311 11.2119 10.4312 11.6497C10.0314 12.0876 9.70351 12.7412 9.56606 13.7635C9.53805 13.9718 9.5325 14.354 9.5325 15.6136V40.0318H56.1868V15.6136C56.1868 14.3539 56.1813 13.9718 56.1533 13.7635C56.0158 12.7412 55.688 12.0876 55.2881 11.6497C54.8882 11.2119 54.267 10.8262 53.2613 10.5967C53.2614 10.5968 53.2575 10.5959 53.2488 10.5941L53.2115 10.5873C53.1781 10.5816 53.1326 10.5744 53.0722 10.566C52.9495 10.549 52.7869 10.5296 52.5697 10.5067C52.1324 10.4605 51.5393 10.4065 50.715 10.3316C47.4045 10.0306 43.6301 8.9005 40.4214 7.73314C38.1519 6.90745 36.5281 6.31735 35.2712 5.92884C33.9954 5.53453 33.3027 5.4163 32.8597 5.4163C32.4166 5.4163 31.7239 5.53453 30.4482 5.92884ZM60.7018 40.0853V15.6136C60.7018 15.5464 60.7018 15.4805 60.7018 15.4156C60.7021 14.4405 60.7024 13.7154 60.628 13.1619C60.3947 11.4272 59.765 9.85678 58.622 8.60515C57.479 7.35351 55.972 6.58423 54.2656 6.1949C53.7205 6.07053 52.7781 5.98512 51.4238 5.86237C51.3259 5.85351 51.2259 5.84445 51.1238 5.83516C48.4028 5.58779 45.0665 4.61863 41.9651 3.49028L41.9052 3.46849C39.7085 2.6693 37.9803 2.04052 36.6045 1.61526C35.235 1.19196 34.0082 0.901367 32.8597 0.901367C31.7111 0.901367 30.4844 1.19196 29.1149 1.61526C27.739 2.04053 26.0108 2.66931 23.8141 3.46852L23.7543 3.49028C20.6529 4.61863 17.3166 5.58779 14.5955 5.83516C14.4934 5.84444 14.3934 5.85351 14.2956 5.86237C12.9411 5.98513 11.9989 6.07053 11.4537 6.1949C9.74732 6.58423 8.24033 7.35351 7.09732 8.60514C5.95431 9.85678 5.32462 11.4272 5.09139 13.1619C5.01697 13.7154 5.0172 14.4405 5.01752 15.4156C5.01754 15.4805 5.01757 15.5464 5.01757 15.6136V40.0853C2.46775 40.4505 0.493044 42.6442 0.507896 45.312C0.526018 48.5673 0.603924 51.2804 1.01116 53.4974C1.43025 55.7789 2.22861 57.7205 3.80861 59.3005C5.37471 60.8666 7.29157 61.6612 9.5325 62.0832V63.359C9.5325 64.6058 10.5432 65.6165 11.79 65.6165C13.0367 65.6165 14.0474 64.6058 14.0474 63.359V62.5292C15.9716 62.6066 18.1674 62.6065 20.6547 62.6065H45.0647C47.552 62.6065 49.7478 62.6066 51.6719 62.5292V63.359C51.6719 64.6058 52.6826 65.6165 53.9294 65.6165C55.1761 65.6165 56.1868 64.6058 56.1868 63.359V62.0832C58.4278 61.6612 60.3446 60.8666 61.9107 59.3005C63.4907 57.7205 64.2891 55.7789 64.7082 53.4974C65.1154 51.2804 65.1933 48.5673 65.2114 45.312C65.2263 42.6442 63.2516 40.4505 60.7018 40.0853ZM35.1171 58.0916H44.8995C49.22 58.0916 52.2333 58.0868 54.5069 57.7811C56.7156 57.4842 57.8851 56.941 58.7182 56.108C59.451 55.3752 59.9542 54.3877 60.2675 52.6817C60.5928 50.9111 60.6783 48.5782 60.6966 45.2869C60.6988 44.8873 60.3711 44.5468 59.9493 44.5468H35.1171V58.0916ZM30.6022 44.5468V58.0916H20.8198C16.4993 58.0916 13.486 58.0868 11.2124 57.7811C9.00379 57.4842 7.8342 56.941 7.00116 56.108C6.26838 55.3752 5.76518 54.3877 5.4518 52.6817C5.12657 50.9111 5.04108 48.5782 5.02276 45.2869C5.02054 44.8873 5.34827 44.5468 5.77005 44.5468H30.6022ZM29.941 16.6134C30.8226 17.495 30.8226 18.9243 29.941 19.8059L26.931 22.8159C26.0495 23.6975 24.6201 23.6975 23.7385 22.8159C22.8569 21.9343 22.8569 20.5049 23.7385 19.6233L26.7485 16.6134C27.6301 15.7318 29.0594 15.7318 29.941 16.6134ZM38.9709 19.6233C39.8525 20.5049 39.8525 21.9343 38.9709 22.8159L29.941 31.8457C29.0594 32.7273 27.6301 32.7273 26.7485 31.8457C25.8669 30.9641 25.8669 29.5348 26.7485 28.6532L35.7783 19.6233C36.6599 18.7417 38.0893 18.7417 38.9709 19.6233ZM41.9808 28.6532C42.8624 29.5348 42.8624 30.9641 41.9808 31.8457L38.9709 34.8557C38.0893 35.7373 36.6599 35.7373 35.7783 34.8557C34.8967 33.9741 34.8967 32.5447 35.7783 31.6631L38.7883 28.6532C39.6699 27.7716 41.0992 27.7716 41.9808 28.6532ZM15.5524 51.3192C15.5524 50.0724 16.5631 49.0617 17.8099 49.0617H23.8298C25.0766 49.0617 26.0873 50.0724 26.0873 51.3192C26.0873 52.5659 25.0766 53.5766 23.8298 53.5766H17.8099C16.5631 53.5766 15.5524 52.5659 15.5524 51.3192ZM39.6321 51.3192C39.6321 50.0724 40.6428 49.0617 41.8895 49.0617H47.9095C49.1562 49.0617 50.1669 50.0724 50.1669 51.3192C50.1669 52.5659 49.1562 53.5766 47.9095 53.5766H41.8895C40.6428 53.5766 39.6321 52.5659 39.6321 51.3192Z" fill="#F6FBFE"/>
</svg>
