<svg width="59" height="66" viewBox="0 0 59 66" fill="none" xmlns="http://www.w3.org/2000/svg">
<path fill-rule="evenodd" clip-rule="evenodd" d="M15.08 6.72473C15.4423 3.32595 18.319 0.678589 21.8139 0.678589H36.8637C40.3586 0.678589 43.2352 3.32595 43.5976 6.72473C45.8947 6.77148 47.8808 6.89029 49.5767 7.20179C51.8582 7.62088 53.7999 8.41924 55.3799 9.99926C57.1916 11.811 57.9709 14.0922 58.3351 16.8015C58.686 19.411 58.6859 22.7289 58.6859 26.8453V45.2354C58.6859 49.3518 58.686 52.6697 58.3351 55.2793C57.9709 57.9885 57.1916 60.2697 55.3799 62.0815C53.5681 63.8932 51.287 64.6725 48.5777 65.0367C45.9681 65.3876 42.6502 65.3875 38.5338 65.3874H20.1438C16.0274 65.3875 12.7094 65.3876 10.0999 65.0367C7.3906 64.6725 5.10943 63.8932 3.29769 62.0815C1.48594 60.2697 0.706686 57.9885 0.342431 55.2793C-0.00841127 52.6697 -0.00836121 49.3518 -0.00829914 45.2354V26.8453C-0.00836121 22.7289 -0.00841127 19.411 0.342431 16.8015C0.706686 14.0922 1.48595 11.811 3.29769 9.99926C4.87771 8.41924 6.81935 7.62088 9.10089 7.20179C10.7968 6.89029 12.7829 6.77148 15.08 6.72473ZM15.0859 11.2409C12.9245 11.2871 11.2589 11.3959 9.91657 11.6424C8.2105 11.9558 7.22302 12.459 6.49023 13.1918C5.65718 14.0248 5.11405 15.1944 4.81711 17.4031C4.51143 19.6766 4.50664 22.6899 4.50664 27.0105V45.0702C4.50664 49.3908 4.51143 52.4041 4.81711 54.6776C5.11405 56.8863 5.65718 58.0559 6.49023 58.8889C7.32327 59.722 8.49286 60.2651 10.7015 60.562C12.9751 60.8677 15.9884 60.8725 20.3089 60.8725H38.3687C42.6892 60.8725 45.7025 60.8677 47.9761 60.562C50.1847 60.2651 51.3543 59.722 52.1873 58.8889C53.0204 58.0559 53.5635 56.8863 53.8605 54.6776C54.1661 52.4041 54.1709 49.3908 54.1709 45.0702V27.0105C54.1709 22.6899 54.1661 19.6766 53.8605 17.4031C53.5635 15.1944 53.0204 14.0248 52.1873 13.1918C51.4546 12.459 50.4671 11.9558 48.761 11.6424C47.4186 11.3959 45.7531 11.2871 43.5917 11.2409C43.2049 14.6138 40.3402 17.2334 36.8637 17.2334H21.8139C18.3374 17.2334 15.4727 14.6138 15.0859 11.2409ZM21.8139 5.19352C20.5671 5.19352 19.5564 6.20423 19.5564 7.45099V10.461C19.5564 11.7077 20.5671 12.7184 21.8139 12.7184H36.8637C38.1104 12.7184 39.1211 11.7077 39.1211 10.461V7.45099C39.1211 6.20423 38.1104 5.19352 36.8637 5.19352H21.8139ZM24.0469 32.4025C23.3567 32.6444 22.5664 33.3989 22.5664 35.1328C22.5664 35.7786 22.9915 36.775 24.0998 38.0566C25.1492 39.27 26.5352 40.4227 27.7933 41.3458C28.4743 41.8454 28.7975 42.0758 29.0562 42.2123C29.2199 42.2987 29.2652 42.2989 29.3388 42.2989C29.4124 42.2989 29.4577 42.2987 29.6214 42.2123C29.8801 42.0758 30.2033 41.8454 30.8843 41.3458C32.1423 40.4227 33.5284 39.27 34.5777 38.0566C35.6861 36.775 36.1112 35.7786 36.1112 35.1327C36.1112 33.3989 35.3209 32.6444 34.6307 32.4025C33.8773 32.1383 32.4819 32.2225 30.9 33.7372C30.027 34.573 28.6506 34.573 27.7776 33.7372C26.1957 32.2225 24.8003 32.1383 24.0469 32.4025ZM29.3388 29.226C27.1828 27.8066 24.7485 27.3722 22.5533 28.1417C19.7444 29.1264 18.0514 31.8303 18.0514 35.1328C18.0514 37.45 19.3794 39.5006 20.6848 41.01C22.0492 42.5876 23.7377 43.9699 25.1224 44.9859C25.1925 45.0374 25.2632 45.0897 25.3346 45.1424C26.3919 45.9242 27.5951 46.8139 29.3388 46.8139C31.0824 46.8139 32.2857 45.9242 33.343 45.1425C33.4144 45.0897 33.485 45.0374 33.5552 44.986C34.9399 43.97 36.6283 42.5877 37.9927 41.01C39.2981 39.5006 40.6261 37.45 40.6261 35.1327C40.6261 31.8303 38.9332 29.1264 36.1243 28.1417C33.929 27.3722 31.4948 27.8066 29.3388 29.226Z" fill="#7A8699"/>
</svg>
