<svg width="56" height="56" viewBox="0 0 56 56" fill="none" xmlns="http://www.w3.org/2000/svg">
<g clip-path="url(#clip0_586_8218)">
<path d="M15.037 47.9617L15.9361 48.4143C19.683 50.6766 23.8791 51.7323 28.0754 51.7323C41.2636 51.7323 52.0539 40.8731 52.0539 27.6007C52.0539 21.2662 49.5061 15.0824 45.0103 10.5576C40.5142 6.03289 34.5194 3.46899 28.0754 3.46899C14.8872 3.46899 4.0967 14.3282 4.24666 27.7516C4.24666 32.2761 5.59545 36.6502 7.84336 40.4206L8.44278 41.3256L6.04512 50.2242L15.037 47.9617Z" fill="#00E676"/>
<path d="M47.5579 8.14443C42.4624 2.86573 35.4188 0 28.2252 0C12.939 0 0.649961 12.5183 0.799707 27.7514C0.799707 32.5777 2.1485 37.2534 4.39662 41.4763L0.5 55.8045L15.037 52.034C19.0833 54.2964 23.5792 55.3522 28.0754 55.3522C43.2118 55.3522 55.5009 42.8337 55.5009 27.6009C55.5009 20.2104 52.6533 13.2724 47.5581 8.14443H47.5579ZM28.2252 50.6768C24.1788 50.6768 20.1324 49.6212 16.6855 47.5096L15.7863 47.0571L7.0942 49.3194L9.34211 40.7226L8.7427 39.8175C2.1485 29.1092 5.29574 14.9315 16.0861 8.29514C26.8764 1.65903 40.8139 4.82638 47.4081 15.6856C54.0021 26.5449 50.8549 40.5715 40.0648 47.2078C36.6176 49.4701 32.4215 50.6765 28.2252 50.6765V50.6768ZM41.4133 33.9356L39.7648 33.1814C39.7648 33.1814 37.3672 32.1256 35.8684 31.3715C35.7185 31.3715 35.5687 31.2205 35.4188 31.2205C34.9691 31.2205 34.6694 31.3715 34.3697 31.5224C34.3697 31.5224 34.2199 31.6731 32.1218 34.0863C31.9718 34.3879 31.6721 34.5388 31.3724 34.5388H31.2224C31.0727 34.5388 30.773 34.3879 30.623 34.2372L29.8737 33.9356C28.2252 33.1814 26.7266 32.2763 25.5276 31.0698C25.2279 30.7682 24.7782 30.4666 24.4785 30.165C23.4294 29.1092 22.3803 27.9025 21.6312 26.5451L21.4812 26.2435C21.3315 26.0925 21.3315 25.9418 21.1815 25.6402C21.1815 25.3386 21.1815 25.037 21.3315 24.8861C21.3315 24.8861 21.9309 24.1319 22.3803 23.6796C22.6803 23.3777 22.83 22.9254 23.1297 22.6238C23.4294 22.1712 23.5794 21.568 23.4294 21.1155C23.2797 20.3613 21.4812 16.2891 21.0318 15.3842C20.7318 14.9317 20.4323 14.781 19.9827 14.6301H18.3342C18.0343 14.6301 17.7348 14.781 17.4348 14.781L17.2849 14.9317C16.9852 15.0826 16.6855 15.3842 16.3858 15.5349C16.0861 15.8368 15.9361 16.1382 15.6364 16.44C14.5873 17.7974 13.9879 19.4564 13.9879 21.1155C13.9879 22.3219 14.2876 23.5287 14.7373 24.5844L14.8872 25.037C16.236 27.9025 18.0343 30.4666 20.4323 32.7289L21.0318 33.3321C21.4812 33.7847 21.9309 34.0863 22.2306 34.5386C25.3778 37.2536 28.9745 39.2143 33.0209 40.2701C33.4706 40.4208 34.07 40.4208 34.5196 40.5717H36.0182C36.7676 40.5717 37.6667 40.2701 38.2663 39.9684C38.7158 39.6668 39.0155 39.6668 39.3152 39.3652L39.6151 39.0634C39.9148 38.7617 40.2145 38.611 40.5142 38.3094C40.8139 38.0078 41.1136 37.7062 41.2636 37.4043C41.5633 36.8011 41.713 36.0469 41.863 35.293V34.2372C41.863 34.2372 41.713 34.0863 41.4133 33.9356Z" fill="white"/>
</g>
<defs>
<clipPath id="clip0_586_8218">
<rect width="55" height="56" fill="white" transform="translate(0.5)"/>
</clipPath>
</defs>
</svg>
