<svg width="73" height="73" viewBox="0 0 73 73" fill="none" xmlns="http://www.w3.org/2000/svg">
<path fill-rule="evenodd" clip-rule="evenodd" d="M34.4482 8.78944C33.1913 9.17794 31.5674 9.76804 29.2979 10.5937C26.0893 11.7611 22.3148 12.8912 19.0043 13.1921C18.1799 13.2671 17.5868 13.3211 17.1496 13.3673C16.9324 13.3902 16.7698 13.4096 16.6472 13.4266C16.5867 13.435 16.5413 13.4421 16.5079 13.4479L16.4706 13.4547C16.4619 13.4564 16.4579 13.4573 16.458 13.4573C15.4524 13.6868 14.8311 14.0725 14.4312 14.5103C14.0314 14.9482 13.7035 15.6018 13.5661 16.6241C13.5381 16.8324 13.5325 17.2145 13.5325 18.4741V42.8924H60.1868V18.4741C60.1868 17.2145 60.1813 16.8324 60.1533 16.6241C60.0158 15.6018 59.688 14.9482 59.2881 14.5103C58.8882 14.0725 58.267 13.6868 57.2613 13.4573C57.2614 13.4574 57.2575 13.4565 57.2488 13.4547L57.2115 13.4479C57.1781 13.4421 57.1326 13.435 57.0722 13.4266C56.9495 13.4096 56.7869 13.3902 56.5697 13.3673C56.1324 13.3211 55.5393 13.2671 54.715 13.1921C51.4045 12.8912 47.6301 11.7611 44.4214 10.5937C42.1519 9.76804 40.5281 9.17794 39.2712 8.78944C37.9954 8.39512 37.3027 8.2769 36.8597 8.2769C36.4166 8.2769 35.7239 8.39512 34.4482 8.78944ZM64.7018 42.9459V18.4741C64.7018 18.407 64.7018 18.341 64.7018 18.2762C64.7021 17.3011 64.7024 16.576 64.628 16.0225C64.3947 14.2878 63.765 12.7174 62.622 11.4657C61.479 10.2141 59.972 9.44483 58.2656 9.0555C57.7205 8.93113 56.7781 8.84571 55.4238 8.72297C55.3259 8.7141 55.2259 8.70504 55.1238 8.69575C52.4028 8.44839 49.0665 7.47923 45.9651 6.35088L45.9052 6.32908C43.7085 5.52989 41.9803 4.90112 40.6045 4.47586C39.235 4.05255 38.0082 3.76196 36.8597 3.76196C35.7111 3.76196 34.4844 4.05255 33.1149 4.47586C31.739 4.90113 30.0108 5.52991 27.8141 6.32912L27.7543 6.35088C24.6529 7.47923 21.3166 8.44839 18.5955 8.69575C18.4934 8.70504 18.3934 8.7141 18.2956 8.72297C16.9411 8.84573 15.9989 8.93112 15.4537 9.0555C13.7473 9.44483 12.2403 10.2141 11.0973 11.4657C9.95431 12.7174 9.32462 14.2878 9.09139 16.0225C9.01697 16.576 9.0172 17.3011 9.01752 18.2762C9.01754 18.3411 9.01757 18.407 9.01757 18.4741V42.9459C6.46775 43.3111 4.49304 45.5048 4.5079 48.1726C4.52602 51.4279 4.60392 54.141 5.01116 56.358C5.43025 58.6395 6.22861 60.5811 7.80861 62.1611C9.37471 63.7272 11.2916 64.5218 13.5325 64.9438V66.2196C13.5325 67.4663 14.5432 68.477 15.79 68.477C17.0367 68.477 18.0474 67.4663 18.0474 66.2196V65.3898C19.9716 65.4672 22.1674 65.4671 24.6547 65.4671H49.0647C51.552 65.4671 53.7478 65.4672 55.6719 65.3898V66.2196C55.6719 67.4663 56.6826 68.477 57.9294 68.477C59.1761 68.477 60.1868 67.4663 60.1868 66.2196V64.9438C62.4278 64.5218 64.3446 63.7272 65.9107 62.1611C67.4907 60.5811 68.2891 58.6395 68.7082 56.358C69.1154 54.141 69.1933 51.4279 69.2114 48.1726C69.2263 45.5048 67.2516 43.3111 64.7018 42.9459ZM39.1171 60.9522H48.8995C53.22 60.9522 56.2333 60.9474 58.5069 60.6417C60.7156 60.3447 61.8851 59.8016 62.7182 58.9686C63.451 58.2358 63.9542 57.2483 64.2675 55.5423C64.5928 53.7717 64.6783 51.4388 64.6966 48.1475C64.6988 47.7479 64.3711 47.4073 63.9493 47.4073H39.1171V60.9522ZM34.6022 47.4073V60.9522H24.8198C20.4993 60.9522 17.486 60.9474 15.2124 60.6417C13.0038 60.3447 11.8342 59.8016 11.0012 58.9686C10.2684 58.2358 9.76518 57.2483 9.4518 55.5423C9.12657 53.7717 9.04108 51.4388 9.02276 48.1475C9.02054 47.7479 9.34827 47.4073 9.77005 47.4073H34.6022ZM33.941 19.474C34.8226 20.3555 34.8226 21.7849 33.941 22.6665L30.931 25.6765C30.0495 26.558 28.6201 26.558 27.7385 25.6765C26.8569 24.7949 26.8569 23.3655 27.7385 22.4839L30.7485 19.474C31.6301 18.5924 33.0594 18.5924 33.941 19.474ZM42.9709 22.4839C43.8525 23.3655 43.8525 24.7949 42.9709 25.6765L33.941 34.7063C33.0594 35.5879 31.6301 35.5879 30.7485 34.7063C29.8669 33.8247 29.8669 32.3954 30.7485 31.5138L39.7783 22.4839C40.6599 21.6023 42.0893 21.6023 42.9709 22.4839ZM45.9808 31.5138C46.8624 32.3954 46.8624 33.8247 45.9808 34.7063L42.9709 37.7163C42.0893 38.5979 40.6599 38.5979 39.7783 37.7163C38.8967 36.8347 38.8967 35.4053 39.7783 34.5237L42.7883 31.5138C43.6699 30.6322 45.0992 30.6322 45.9808 31.5138ZM19.5524 54.1798C19.5524 52.933 20.5631 51.9223 21.8099 51.9223H27.8298C29.0766 51.9223 30.0873 52.933 30.0873 54.1798C30.0873 55.4265 29.0766 56.4372 27.8298 56.4372H21.8099C20.5631 56.4372 19.5524 55.4265 19.5524 54.1798ZM43.6321 54.1798C43.6321 52.933 44.6428 51.9223 45.8895 51.9223H51.9095C53.1562 51.9223 54.1669 52.933 54.1669 54.1798C54.1669 55.4265 53.1562 56.4372 51.9095 56.4372H45.8895C44.6428 56.4372 43.6321 55.4265 43.6321 54.1798Z" fill="#7A8699"/>
</svg>
