<svg width="160" height="70" viewBox="0 0 160 70" fill="none" xmlns="http://www.w3.org/2000/svg">
<path d="M159.203 20.9393C159.203 19.9824 158.887 19.099 158.35 18.3923C157.316 16.6587 155.425 15.4993 153.261 15.4993H136.74C136.486 15.4993 136.236 15.514 135.993 15.5471H135.989C133.072 15.9152 130.82 18.4033 130.82 21.4215V37.9477C130.82 41.2162 133.469 43.87 136.74 43.87H151.833C153.073 43.87 154.082 44.8748 154.082 46.1189V53.4471C154.082 54.6875 153.077 55.696 151.833 55.696H80.1675C78.9276 55.696 77.9194 54.6912 77.9194 53.4471V51.5773C77.9194 50.3369 78.9239 49.3284 80.1675 49.3284H115.759C116.999 49.3284 118.008 48.3236 118.008 47.0795V17.7445C118.008 16.5041 117.003 15.4956 115.759 15.4956H72.4774C71.2374 15.4956 70.2292 16.5004 70.2292 17.7445V36.1626C70.2292 37.403 69.2247 38.4115 67.981 38.4115H42.6145C41.323 38.4115 40.1934 39.0888 39.5495 40.1009C39.2073 40.469 38.9939 40.9622 38.9939 41.5033V41.8345C38.9902 41.9008 38.9828 41.9671 38.9828 42.037V45.6956C38.9828 45.7655 38.9902 45.8318 38.9939 45.898V53.4434C38.9939 54.6838 37.9893 55.6923 36.7457 55.6923H8.16693C6.92694 55.6923 5.91875 54.6875 5.91875 53.4434V46.1152C5.91875 44.8748 6.92326 43.8663 8.16693 43.8663H26.9103C28.1503 43.8663 29.1585 42.8615 29.1585 41.6174V17.7482C29.1585 16.5078 28.154 15.4993 26.9103 15.4993H6.7172C6.46332 15.4993 6.21311 15.514 5.97026 15.5471H5.96658C5.75317 15.5177 5.5324 15.4993 5.31163 15.4993H3.04505C1.80506 15.4993 0.796875 16.5041 0.796875 17.7482V59.1006C0.796875 59.1006 0.796875 59.108 0.796875 59.1153V66.7638C0.796875 68.0042 1.80138 69.0127 3.04505 69.0127H42.4342C43.6742 69.0127 44.6824 68.0079 44.6824 66.7638V52.6189C44.6824 50.8007 46.1542 49.3284 47.9718 49.3284H66.9397C68.7574 49.3284 70.2292 50.8007 70.2292 52.6189V66.7086C70.2292 67.949 71.2337 68.9575 72.4774 68.9575H74.3723C74.4717 68.9575 74.5673 68.9648 74.663 68.9759C74.8249 68.9943 74.9868 69.009 75.1524 69.009H156.952C158.192 69.009 159.2 68.0042 159.2 66.7601V59.9987C159.2 59.8588 159.192 59.719 159.178 59.5828C159.192 59.4429 159.2 59.2994 159.2 59.1558V20.9393H159.203ZM136.251 32.2942C135.011 32.2942 134.002 31.2894 134.002 30.0453V28.5694C134.002 27.3768 134.966 26.4125 136.155 26.4125H152.948C154.188 26.4125 155.196 27.4173 155.196 28.6614V30.0453C155.196 31.2857 154.192 32.2942 152.948 32.2942H136.251ZM74.2399 36.1626V28.6614C74.2399 27.421 75.2444 26.4125 76.488 26.4125H111.749C112.989 26.4125 113.997 27.4173 113.997 28.6614V36.1626C113.997 37.403 112.992 38.4115 111.749 38.4115H76.488C75.248 38.4115 74.2399 37.4067 74.2399 36.1626ZM6.13216 26.4125H22.9254C24.1654 26.4125 25.1736 27.4173 25.1736 28.6614V30.0453C25.1736 31.2857 24.1691 32.2942 22.9254 32.2942H6.22783C4.98783 32.2942 3.97965 31.2894 3.97965 30.0453V28.5694C3.97965 27.3768 4.94368 26.4125 6.13216 26.4125Z" fill="#FA7F82"/>
<path d="M16.6054 5.59831C17.0543 5.88541 17.5511 6.23875 18.0956 6.65099C18.7542 7.23253 19.3393 7.8288 19.836 8.44716C20.6198 9.48879 21.3262 10.074 21.9775 10.2249C22.6177 10.3685 23.2285 10.2728 23.8025 9.93783C24.3839 9.61393 24.9505 9.106 25.5135 8.41771C26.0691 7.74047 26.6431 7.02274 27.2245 6.27556C27.7985 5.56887 28.1407 5.07198 28.2474 4.78488C28.343 4.49779 28.332 4.33584 28.2106 4.28799C28.0855 4.25118 27.8868 4.31744 27.5887 4.50883C27.3017 4.68919 27.0331 4.87322 26.7866 5.03517C26.5769 5.19712 26.3855 5.29282 26.1942 5.31122C26.0139 5.34067 25.7821 5.26337 25.5172 5.10142C25.2486 4.92843 24.9137 4.64134 24.5237 4.23278C24.13 3.81318 23.5781 3.239 22.879 2.49182C22.0106 1.49804 21.2526 0.846556 20.6124 0.530018C19.9611 0.224521 19.4166 0.11042 18.9677 0.184034C18.5077 0.26869 18.1067 0.507934 17.7534 0.901766C17.4002 1.2956 17.0654 1.7336 16.76 2.21209C16.4435 2.67953 16.1492 3.15802 15.8622 3.63651C15.5641 4.115 15.2514 4.4573 14.8981 4.65974C14.5449 4.86954 14.1254 4.91003 13.625 4.78488C13.1283 4.65974 12.5432 4.26959 11.8846 3.60707C10.9758 2.73843 10.1552 2.04646 9.4267 1.54957C8.70919 1.05267 8.0984 0.680926 7.60166 0.430639C7.0203 0.143546 6.50149 0 6.04155 0C5.04808 1.36921 4.29378 2.3998 3.77497 3.10649C3.25984 3.80582 2.91397 4.31008 2.75207 4.62661C2.59017 4.93211 2.59753 5.13455 2.78151 5.2192C2.97284 5.2965 3.27824 5.4106 3.71978 5.55414C4.15028 5.70873 4.68381 5.97374 5.33508 6.36757C5.97532 6.76141 6.71122 7.40921 7.53543 8.31833C8.3302 9.23482 9.06611 9.79061 9.77257 10.0004C10.479 10.2102 11.1413 10.2102 11.7595 10.0004C12.3813 9.79061 12.9443 9.43726 13.4705 8.94037C13.9856 8.44348 14.4161 7.93554 14.7693 7.42025C15.1226 6.90495 15.3912 6.45591 15.5825 6.05104C15.7628 5.6572 15.8806 5.44004 15.9173 5.39956C16.002 5.36275 16.0903 5.34067 16.1676 5.34067" fill="#FA7F82"/>
<path d="M146.498 5.59831C146.947 5.88541 147.444 6.23875 147.988 6.65099C148.647 7.23253 149.232 7.8288 149.729 8.44716C150.512 9.48879 151.219 10.074 151.87 10.2249C152.51 10.3685 153.121 10.2728 153.695 9.93783C154.276 9.61393 154.843 9.106 155.406 8.41771C155.962 7.74047 156.536 7.02274 157.117 6.27556C157.691 5.56887 158.033 5.07198 158.14 4.78488C158.236 4.49779 158.225 4.33584 158.103 4.28799C157.978 4.25118 157.779 4.31744 157.481 4.50883C157.194 4.68919 156.926 4.87322 156.679 5.03517C156.469 5.19712 156.278 5.29282 156.087 5.31122C155.907 5.34067 155.675 5.26337 155.41 5.10142C155.141 4.92843 154.806 4.64134 154.416 4.23278C154.023 3.81318 153.471 3.239 152.772 2.49182C151.903 1.49804 151.145 0.846556 150.505 0.530018C149.854 0.224521 149.309 0.11042 148.86 0.184034C148.4 0.26869 147.999 0.507934 147.646 0.901766C147.293 1.2956 146.958 1.7336 146.653 2.21209C146.336 2.67953 146.042 3.15802 145.755 3.63651C145.457 4.115 145.144 4.4573 144.791 4.65974C144.437 4.86954 144.018 4.91003 143.518 4.78488C143.021 4.65974 142.436 4.26959 141.777 3.60707C140.868 2.73843 140.048 2.04646 139.319 1.54957C138.602 1.05267 137.991 0.680926 137.494 0.430639C136.913 0.143546 136.394 0 135.934 0C134.941 1.36921 134.186 2.3998 133.668 3.10649C133.152 3.80582 132.807 4.31008 132.645 4.62661C132.483 4.93211 132.49 5.13455 132.674 5.2192C132.865 5.2965 133.171 5.4106 133.612 5.55414C134.043 5.70873 134.576 5.97374 135.228 6.36757C135.868 6.76141 136.604 7.40921 137.428 8.31833C138.223 9.23482 138.959 9.79061 139.665 10.0004C140.372 10.2102 141.034 10.2102 141.652 10.0004C142.274 9.79061 142.837 9.43726 143.363 8.94037C143.878 8.44348 144.309 7.93554 144.662 7.42025C145.015 6.90495 145.284 6.45591 145.475 6.05104C145.655 5.6572 145.773 5.44004 145.81 5.39956C145.895 5.36275 145.983 5.34067 146.06 5.34067" fill="#FA7F82"/>
</svg>
